<?xml version="1.0" encoding="UTF-8" standalone="no"?>
<!-- Uploaded to: SVG Repo, www.svgrepo.com, Generator: SVG Repo Mixer Tools -->

<svg
   width="50px"
   height="50px"
   viewBox="0 0 24 24"
   fill="none"
   version="1.1"
   id="svg1"
   sodipodi:docname="lightning-svgrepo-com.svg"
   inkscape:version="1.3.2 (091e20ef0f, 2023-11-25)"
   xmlns:inkscape="http://www.inkscape.org/namespaces/inkscape"
   xmlns:sodipodi="http://sodipodi.sourceforge.net/DTD/sodipodi-0.dtd"
   xmlns="http://www.w3.org/2000/svg"
   xmlns:svg="http://www.w3.org/2000/svg">
  <defs
     id="defs1" />
  <sodipodi:namedview
     id="namedview1"
     pagecolor="#ffffff"
     bordercolor="#000000"
     borderopacity="0.25"
     inkscape:showpageshadow="2"
     inkscape:pageopacity="0.0"
     inkscape:pagecheckerboard="0"
     inkscape:deskcolor="#d1d1d1"
     inkscape:zoom="0.48206218"
     inkscape:cx="592.24725"
     inkscape:cy="532.08904"
     inkscape:window-width="1920"
     inkscape:window-height="1131"
     inkscape:window-x="0"
     inkscape:window-y="0"
     inkscape:window-maximized="1"
     inkscape:current-layer="svg1" />
  <circle
     style="fill:#3895f2;stroke-width:0.03;fill-opacity:1"
     id="path2"
     cx="12.062922"
     cy="12.181553"
     r="11.708244" />
  <path
     fill-rule="evenodd"
     clip-rule="evenodd"
     d="M12.261 1.03462C12.6971 1.15253 13 1.54819 13 1.99997V8.99997H19C19.3581 8.99997 19.6888 9.19141 19.8671 9.50191C20.0455 9.8124 20.0442 10.1945 19.8638 10.5038L12.8638 22.5038C12.6361 22.8941 12.1751 23.0832 11.739 22.9653C11.3029 22.8474 11 22.4517 11 22V15H5C4.64193 15 4.3112 14.8085 4.13286 14.498C3.95452 14.1875 3.9558 13.8054 4.13622 13.4961L11.1362 1.4961C11.3639 1.10586 11.8249 0.916719 12.261 1.03462ZM6.74104 13H12C12.5523 13 13 13.4477 13 14V18.301L17.259 11H12C11.4477 11 11 10.5523 11 9.99997V5.69889L6.74104 13Z"
     fill="#000000"
     id="path1"
     style="fill:#ffffff;fill-opacity:1" />
</svg>
